<svg xmlns="http://www.w3.org/2000/svg" xmlns:xlink="http://www.w3.org/1999/xlink" width="48" height="48" viewBox="0 0 48 48">
  <defs>
    <clipPath id="clip-path">
      <circle id="Ellipse_15" data-name="Ellipse 15" cx="24" cy="24" r="24" transform="translate(92 106)" fill="#b0bec5"/>
    </clipPath>
  </defs>
  <g id="Mask_Group_6" data-name="Mask Group 6" transform="translate(-92 -106)" clip-path="url(#clip-path)">
    <g id="_071-in_love" data-name="071-in love" transform="translate(92 106)">
      <circle id="Ellipse_333" data-name="Ellipse 333" cx="24" cy="24" r="24" fill="#b0bec5"/>
      <g id="Group_995" data-name="Group 995">
        <path id="Path_6565" data-name="Path 6565" d="M38.722,28.632A1.5,1.5,0,0,0,37.5,28h-27a1.5,1.5,0,0,0-1.416,2,15.812,15.812,0,0,0,29.832,0,1.5,1.5,0,0,0-.194-1.364Z" fill="#90a4ae"/>
        <path id="Path_6566" data-name="Path 6566" d="M34.939,12a4.219,4.219,0,0,0-2.441.769A4.219,4.219,0,0,0,30.057,12,3.944,3.944,0,0,0,26,15.813c0,3.2,4.76,6.593,5.716,7.241a1.4,1.4,0,0,0,1.563,0C34.236,22.406,39,19.012,39,15.813A3.944,3.944,0,0,0,34.939,12Z" transform="translate(1.004)" fill="#90a4ae"/>
        <path id="Path_6567" data-name="Path 6567" d="M16.939,12a4.219,4.219,0,0,0-2.441.769A4.219,4.219,0,0,0,12.057,12,3.944,3.944,0,0,0,8,15.813c0,3.2,4.76,6.593,5.716,7.241a1.4,1.4,0,0,0,1.563,0C16.236,22.406,21,19.012,21,15.813A3.944,3.944,0,0,0,16.939,12Z" fill="#90a4ae"/>
      </g>
    </g>
  </g>
</svg>
